<svg height="464pt" viewBox="0 0 464 464" width="464pt" xmlns="http://www.w3.org/2000/svg"><path d="m353.734375 96.632812c.304687-1.121093.457031-2.28125.457031-3.441406 0-7.269531-5.910156-13.183594-13.183594-13.183594h-2.59375c-5.941406 0-11.175781 4.007813-12.726562 9.746094l-9.183594 33.980469 27.441406 9.144531zm0 0"/><path d="m339.761719 148.351562-27.441407-9.144531-4.417968 16.328125 27.441406 9.144532zm0 0"/><path d="m32 128h176v-48h-176zm144-32h16v16h-16zm-32 0h16v16h-16zm-32 0h16v16h-16zm-32 0h16v16h-16zm-32 0h16v16h-16zm0 0"/><path d="m288 167.863281 22.238281-82.296875c3.433594-12.695312 15.019531-21.566406 28.175781-21.566406h2.59375c16.097657 0 29.183594 13.097656 29.183594 29.183594 0 2.578125-.335937 5.144531-1.007812 7.625l-33.296875 123.191406h.617187c7.921875 0 15.59375 2.328125 22.183594 6.71875l17.3125 11.539062v-242.257812h-272v32h184zm0 0"/><path d="m303.71875 171.007812-33.773438 124.992188h29.910157l31.3125-115.847656zm0 0"/><path d="m322.191406 296c4.410156 0 8-3.59375 8-8s-3.589844-8-8-8h-1.4375l-4.328125 16zm0 0"/><path d="m268.503906 240h-13.054687c-6.320313 0-12.496094 2.558594-16.96875 7.023438l-57.65625 57.664062c-1.695313 1.695312-2.632813 3.945312-2.632813 6.34375 0 4.945312 4.023438 8.96875 8.976563 8.96875 2.359375 0 4.671875-.960938 6.34375-2.632812l41.65625-41.65625c7.199219-7.199219 16.6875-11.199219 26.808593-11.566407zm0 0"/><path d="m264.441406 400-2.488281 9.945312-15.519531-3.882812 2.511718-10.03125c-8.769531-5.039062-14.746093-14.390625-14.746093-25.207031 0-2.578125.335937-5.144531 1.007812-7.625l3.023438-11.199219h-28.039063c-8.824218 0-16-7.175781-16-16 0-.390625.105469-.761719.121094-1.160156-2.304688.6875-4.679688 1.160156-7.144531 1.160156-13.769531 0-24.976563-11.199219-24.976563-24.96875 0-6.671875 2.601563-12.941406 7.320313-17.664062l13.375-13.367188h-30.886719v-16h46.886719l16-16h-62.886719v-16h79.6875c6.855469-5.113281 15.054688-8 23.761719-8h16.550781v-176h-272v416h272v-64.703125c-1.960938.414063-3.960938.703125-6.023438.703125zm-8.441406-184h-104v-16h104zm-240-152h208v80h-208zm48 195.3125-21.65625-21.65625 11.3125-11.3125 10.34375 10.34375 74.34375-74.34375 11.3125 11.3125zm85.65625 50.34375-85.65625 85.65625-21.65625-21.65625 11.3125-11.3125 10.34375 10.34375 74.34375-74.34375zm-133.65625-117.65625h64v16h-48v64h64v-32h16v48h-96zm96 232h-96v-96h64v16h-48v64h64v-32h16zm112 16h-88v-16h88zm32 0h-16v-16h16zm0 0"/><path d="m254.808594 352-4.152344 15.367188c-.304688 1.121093-.457031 2.28125-.457031 3.441406 0 7.269531 5.914062 13.183594 13.183593 13.183594h2.59375c5.945313 0 11.175782-4.007813 12.726563-9.753907l5.960937-22.0625c-1.550781-.054687-3.105468-.175781-4.664062-.175781zm0 0"/><path d="m253.367188 296 4.089843-15.136719c-4.113281 1.074219-7.953125 3.136719-10.976562 6.160157l-8.96875 8.976562zm0 0"/><path d="m427.886719 288c-7.917969 0-15.589844-2.328125-22.191407-6.71875l-55.871093-37.25c-3.960938-2.640625-8.566407-4.03125-13.320313-4.03125h-4.945312l-6.558594 24.28125c11.902344 1.40625 21.191406 11.4375 21.191406 23.71875 0 13.230469-10.765625 24-24 24h-88c-13.230468 0-24 10.769531-24 24h69.808594c12.9375 0 25.71875 2.070312 37.992188 6.167969l13.480468 4.496093c18.695313 6.230469 39.046875 7.007813 58.175782 2.230469l37.214843-9.300781c9.519531-2.386719 19.328125-3.59375 29.136719-3.59375h8v-48zm0 0"/><path d="m326.398438 361.832031-13.476563-4.496093c-4.011719-1.335938-8.097656-2.34375-12.21875-3.183594l-6.550781 24.261718c-1.167969 4.328126-3.34375 8.171876-6.152344 11.410157v26.175781h88v-48.710938c-3.863281.375-7.726562.710938-11.609375.710938-12.933594 0-25.71875-2.070312-37.992187-6.167969zm0 0"/></svg>