<svg height="512" viewBox="0 0 64 64" width="512" xmlns="http://www.w3.org/2000/svg"><path d="m38 34h2.512a8.5 8.5 0 0 1 .365-.879l-2.484-2.484a1 1 0 0 1 0-1.414l2.83-2.83a1 1 0 0 1 1.414 0l2.484 2.483a8.97 8.97 0 0 1 .879-.365v-3.511a1 1 0 0 1 1-1h4a1 1 0 0 1 1 1v3.511a8.97 8.97 0 0 1 .879.365l2.484-2.483a.982.982 0 0 1 .637-.279v-12.114h-18z"/><path d="m28 46h8v8h-8z"/><path d="m46 56h-28a2 2 0 0 0 0 4h28a2 2 0 0 0 0-4z"/><circle cx="49" cy="37" r="3"/><path d="m55.782 38.748a1 1 0 0 1 .968-.748h3.25v-2h-3.25a1 1 0 0 1 -.968-.748 6.771 6.771 0 0 0 -.749-1.8 1 1 0 0 1 .15-1.224l2.3-2.3-1.413-1.414-2.3 2.3a1 1 0 0 1 -1.224.149 6.777 6.777 0 0 0 -1.8-.748 1 1 0 0 1 -.746-.965v-3.25h-2v3.25a1 1 0 0 1 -.748.968 6.777 6.777 0 0 0 -1.8.748 1 1 0 0 1 -1.224-.149l-2.3-2.3-1.414 1.413 2.3 2.3a1 1 0 0 1 .15 1.224 6.771 6.771 0 0 0 -.749 1.8 1 1 0 0 1 -.965.746h-3.25v2h3.25a1 1 0 0 1 .968.748 6.771 6.771 0 0 0 .749 1.8 1 1 0 0 1 -.15 1.224l-2.3 2.3 1.416 1.416 2.3-2.3a1 1 0 0 1 1.224-.149 6.777 6.777 0 0 0 1.8.748 1 1 0 0 1 .743.963v3.25h2v-3.25a1 1 0 0 1 .748-.968 6.777 6.777 0 0 0 1.8-.748 1 1 0 0 1 1.224.149l2.3 2.3 1.416-1.416-2.3-2.3a1 1 0 0 1 -.15-1.224 6.771 6.771 0 0 0 .744-1.795zm-6.782 3.252a5 5 0 1 1 5-5 5.006 5.006 0 0 1 -5 5z"/><path d="m15.414 10h4.586v-4.586z"/><path d="m60 13a3 3 0 0 0 -3-3h-19v2h19a1 1 0 0 1 1 1v14.616l1.607 1.607a1 1 0 0 1 0 1.414l-2.484 2.484a8.5 8.5 0 0 1 .365.879h2.512z"/><path d="m14 34h22v-30h-14v7a1 1 0 0 1 -1 1h-7zm9-19h10a1 1 0 0 1 0 2h-10a1 1 0 0 1 0-2zm0 4h10a1 1 0 0 1 0 2h-10a1 1 0 0 1 0-2zm0 4h10a1 1 0 0 1 0 2h-10a1 1 0 0 1 0-2zm0 4h10a1 1 0 0 1 0 2h-10a1 1 0 0 1 0-2zm-6-12h2a1 1 0 0 1 0 2h-2a1 1 0 0 1 0-2zm0 4h2a1 1 0 0 1 0 2h-2a1 1 0 0 1 0-2zm0 4h2a1 1 0 0 1 0 2h-2a1 1 0 0 1 0-2zm0 4h2a1 1 0 0 1 0 2h-2a1 1 0 0 1 0-2z"/><path d="m38.114 44a.987.987 0 0 1 .279-.637l2.484-2.484a8.5 8.5 0 0 1 -.365-.879h-3.512a1 1 0 0 1 -1-1v-3h-23a1 1 0 0 1 -1-1v-21h-4v24h26a1 1 0 0 1 0 2h-27a1 1 0 0 1 -1-1v-26a1 1 0 0 1 1-1h5v-1a1 1 0 0 1 .293-.707l.293-.293h-5.586a3 3 0 0 0 -3 3v28a3 3 0 0 0 3 3z"/></svg>