<svg height="448pt" viewBox="-3 0 448 448" width="448pt" xmlns="http://www.w3.org/2000/svg"><path d="m208.492188 336.839844c39.613281-24.878906 63.652343-68.378906 63.640624-115.160156-.050781-6.820313-.609374-13.628907-1.671874-20.367188-9.164063-61.480469-58.949219-108.863281-120.808594-114.976562-4.457032-.433594-8.96875-.65625-13.511719-.65625-65.207031-.066407-121.285156 46.15625-133.667969 110.179687-12.378906 64.023437 22.425782 127.820313 82.957032 152.070313 40.4375 16.175781 86.175781 12.054687 123.070312-11.089844zm-129.863282-9.816406c-10.0625-5.476563-19.285156-12.378907-27.375-20.488282-22.582031-22.464844-35.238281-53.027344-35.160156-84.878906.035156-43.890625 24.003906-84.265625 62.519531-105.3125 43.484375-23.773438 97.113281-18.347656 134.960938 13.648438 37.847656 31.996093 52.117187 83.972656 35.910156 130.808593-.230469.6875-.542969 1.351563-.800781 2.03125-.855469 2.351563-1.71875 4.703125-2.726563 7.015625-1.007812 2.3125-2.230469 4.726563-3.449219 7.0625-.292968.578125-.535156 1.179688-.847656 1.753906-.589844 1.121094-1.277344 2.191407-1.910156 3.296876-10.988281 19.171874-27.164062 34.855468-46.671875 45.238281-35.710937 19.371093-78.808594 19.292969-114.449219-.207031zm0 0"/><path d="m243.628906 329.175781c-3.605468 3.5625-7.386718 6.941407-11.335937 10.121094-1.070313.871094-2.152344 1.710937-3.246094 2.558594-1.257813.96875-2.464844 2.007812-3.753906 2.945312l68.257812 68.183594c9.441407 9.128906 24.425781 9.128906 33.871094 0 4.515625-4.472656 7.054687-10.566406 7.054687-16.925781 0-6.355469-2.539062-12.449219-7.054687-16.921875l-68.167969-68.296875c-.929687 1.289062-1.976562 2.488281-2.945312 3.753906-.847656 1.09375-1.6875 2.183594-2.558594 3.253906-3.183594 3.945313-6.558594 7.722656-10.121094 11.328125zm0 0"/><path d="m227.542969 271.136719v-.066407c17.46875-32.234374 16.644531-71.292968-2.167969-102.765624-18.816406-31.46875-52.832031-50.683594-89.496094-50.550782-17.332031-.03125-34.394531 4.3125-49.601562 12.621094-17.792969 9.753906-32.375 24.453125-41.984375 42.320312-16.257813 30.621094-16.257813 67.316407 0 97.9375 1.601562 2.980469 3.339843 5.882813 5.222656 8.710938 3.832031 5.699219 8.210937 11.007812 13.074219 15.855469 32.488281 32.542969 82.515625 39.828125 122.933594 17.90625 17.855468-9.53125 32.476562-24.144531 42.019531-41.992188zm-121.089844-103.136719h56c4.417969 0 8 3.582031 8 8s-3.582031 8-8 8h-56c-4.417969 0-8-3.582031-8-8s3.582031-8 8-8zm56 112h-56c-4.417969 0-8-3.582031-8-8s3.582031-8 8-8h56c4.417969 0 8 3.582031 8 8s-3.582031 8-8 8zm32-48h-120c-4.417969 0-8-3.582031-8-8s3.582031-8 8-8h120c4.417969 0 8 3.582031 8 8s-3.582031 8-8 8zm0 0"/><path d="m346.453125 72v-72h-232c-13.253906 0-24 10.746094-24 24v52.632812c.496094-.160156 1-.265624 1.496094-.417968 1.320312-.398438 2.648437-.71875 4-1.078125 2.960937-.800781 5.945312-1.550781 8.953125-2.175781 1.511718-.320313 3.027344-.613282 4.542968-.871094 3.039063-.535156 6.101563-.972656 9.183594-1.3125 1.375-.160156 2.742188-.351563 4.128906-.472656 4.429688-.375 8.894532-.625 13.398438-.625 40.339844-.117188 79.046875 15.910156 107.496094 44.503906 24.875 24.785156 40.347656 57.457031 43.761718 92.410156.488282 4.984375.734376 10.011719.734376 15.078125.019531 26.445313-6.910157 52.433594-20.09375 75.359375l70.6875 70.761719c10.855468 9.933593 15.378906 25.03125 11.777343 39.300781-3.601562 14.269531-14.75 25.40625-29.023437 29-14.273438 3.589844-29.363282-.949219-39.292969-11.8125l-70.71875-70.679688c-22.925781 13.175782-48.910156 20.097657-75.351563 20.078126-4.503906 0-8.96875-.246094-13.398437-.625-1.386719-.117188-2.746094-.3125-4.121094-.46875-3.089843-.355469-6.160156-.800782-9.207031-1.3125-1.511719-.265626-3.007812-.554688-4.503906-.867188-3.050782-.628906-6.066406-1.382812-9.058594-2.199219-1.292969-.359375-2.589844-.671875-3.871094-1.0625-.503906-.152343-1.023437-.257812-1.519531-.417969v57.273438c0 13.253906 10.746094 24 24 24h304c13.253906 0 24-10.746094 24-24v-328h-72c-13.253906 0-24-10.746094-24-24zm-216-24c-4.417969 0-8-3.582031-8-8s3.582031-8 8-8h176c4.417969 0 8 3.582031 8 8s-3.582031 8-8 8zm112 48c-4.417969 0-8-3.582031-8-8s3.582031-8 8-8h64c4.417969 0 8 3.582031 8 8s-3.582031 8-8 8zm48 184c0-4.417969 3.582031-8 8-8h104c4.417969 0 8 3.582031 8 8s-3.582031 8-8 8h-104c-4.417969 0-8-3.582031-8-8zm16-56h96c4.417969 0 8 3.582031 8 8s-3.582031 8-8 8h-96c-4.417969 0-8-3.582031-8-8s3.582031-8 8-8zm-8-40c0-4.417969 3.582031-8 8-8h96c4.417969 0 8 3.582031 8 8s-3.582031 8-8 8h-96c-4.417969 0-8-3.582031-8-8zm32 152c-4.417969 0-8-3.582031-8-8s3.582031-8 8-8h72c4.417969 0 8 3.582031 8 8s-3.582031 8-8 8zm88 32c4.417969 0 8 3.582031 8 8v32c0 13.253906-10.746094 24-24 24h-32c-4.417969 0-8-3.582031-8-8s3.582031-8 8-8h32c4.417969 0 8-3.582031 8-8v-32c0-4.417969 3.582031-8 8-8zm-8-232c0 4.417969-3.582031 8-8 8h-120c-4.417969 0-8-3.582031-8-8s3.582031-8 8-8h120c4.417969 0 8 3.582031 8 8zm0 0"/><path d="m370.453125 80h60.6875l-68.6875-68.6875v60.6875c0 4.417969 3.582031 8 8 8zm0 0"/></svg>